<svg xmlns="http://www.w3.org/2000/svg" xmlns:xlink="http://www.w3.org/1999/xlink" width="1080" zoomAndPan="magnify" viewBox="0 0 810 809.999993" height="1080" preserveAspectRatio="xMidYMid meet" version="1.0"><defs><clipPath id="c915f656f1"><path d="M 16.199219 0 L 793.949219 0 L 793.949219 810 L 16.199219 810 Z M 16.199219 0 " clip-rule="nonzero"/></clipPath></defs><path fill="#EBC58E" d="M 367.453125 363.21875 C 367.046875 362.714844 366.796875 362.390625 366.683594 362.234375 C 366.722656 362.253906 366.777344 362.296875 366.898438 362.355469 C 366.972656 362.390625 367.046875 362.449219 367.164062 362.527344 L 367.453125 363.21875 " fill-opacity="1" fill-rule="nonzero"/><path fill="#EBC58E" d="M 367.453125 363.21875 C 367.046875 362.714844 366.796875 362.390625 366.683594 362.234375 C 366.722656 362.253906 366.777344 362.296875 366.898438 362.355469 C 366.972656 362.390625 367.046875 362.449219 367.164062 362.527344 L 367.453125 363.21875 " fill-opacity="1" fill-rule="nonzero"/><g clip-path="url(#c915f656f1)"><path fill="#EBC58E" d="M 497.78125 250.410156 C 233.964844 228.058594 211.421875 113.261719 211.421875 113.261719 C 211.421875 113.261719 272.839844 216.007812 466.339844 224.242188 C 619.855469 230.792969 693.832031 293.730469 717.835938 319.472656 C 682.046875 290.050781 616.777344 260.5 497.78125 250.410156 Z M 405 -0.0117188 C 190.261719 -0.0117188 16.183594 174.066406 16.183594 388.8125 C 16.183594 572.46875 143.492188 726.367188 314.679688 767.09375 C 308.304688 776.980469 297.582031 791.523438 280.289062 810.003906 L 297.621094 795.203125 C 305.496094 788.226562 315.101562 779.429688 325.308594 769.460938 L 325.324219 769.460938 C 326.75 768.070312 328.175781 766.667969 329.617188 765.203125 C 362.640625 732.359375 400.03125 688.4375 404.539062 654.316406 C 406.515625 639.300781 403.574219 629.621094 397.992188 623.585938 C 381.410156 605.625 341.382812 619.757812 336.609375 621.527344 C 336.300781 621.644531 336.148438 621.703125 336.148438 621.703125 C 329.773438 624.402344 323.207031 626.78125 316.429688 628.691406 C 309.632812 630.5625 302.605469 631.964844 295.269531 632.347656 C 294.363281 632.449219 293.402344 632.402344 292.476562 632.425781 L 289.6875 632.425781 C 288.761719 632.402344 287.820312 632.3125 286.875 632.253906 C 285.929688 632.171875 284.988281 632.160156 284.042969 631.988281 L 281.195312 631.539062 C 280.714844 631.503906 280.253906 631.390625 279.75 631.273438 L 278.34375 630.929688 L 276.902344 630.578125 C 276.441406 630.460938 275.976562 630.277344 275.496094 630.136719 C 274.554688 629.804688 273.609375 629.519531 272.683594 629.152344 C 268.929688 627.691406 265.351562 625.574219 262.152344 622.898438 C 258.960938 620.21875 256.242188 616.925781 254.164062 613.308594 C 252.082031 609.671875 250.660156 605.761719 249.851562 601.71875 C 249.425781 599.679688 249.234375 597.601562 249.136719 595.496094 L 249.136719 593.921875 C 249.136719 593.382812 249.136719 592.863281 249.195312 592.300781 L 249.332031 590.667969 C 249.40625 590.046875 249.503906 589.390625 249.621094 588.757812 L 249.695312 588.277344 L 249.753906 588.046875 L 249.792969 587.894531 L 250.0625 586.660156 L 250.101562 586.507812 L 250.238281 586.046875 L 250.3125 585.773438 L 250.949219 583.484375 L 251.488281 581.210938 L 251.949219 578.960938 C 252.546875 575.976562 252.894531 573.089844 252.929688 570.238281 C 253.007812 567.410156 252.738281 564.636719 252.21875 561.6875 C 252.082031 560.972656 251.949219 560.203125 251.8125 559.476562 C 251.640625 558.742188 251.507812 558.027344 251.273438 557.179688 L 251.160156 556.566406 L 251.0625 556.234375 L 251.042969 556.179688 C 251.023438 556.105469 251.003906 556.046875 250.988281 555.96875 L 250.929688 555.835938 C 250.832031 555.660156 250.8125 555.589844 250.757812 555.542969 C 250.71875 555.523438 250.699219 555.488281 250.523438 555.394531 C 250.371094 555.28125 250.082031 555.105469 249.675781 554.890625 C 248.8125 554.507812 247.445312 554.046875 245.882812 553.507812 C 242.707031 552.484375 238.644531 551.117188 234.832031 548.667969 C 233.890625 548.074219 232.964844 547.417969 232.078125 546.726562 L 231.40625 546.1875 C 231.195312 545.992188 230.921875 545.746094 230.691406 545.554688 L 229.980469 544.898438 L 229.5 544.4375 L 229.058594 543.988281 L 228.824219 543.746094 L 228.730469 543.628906 L 228.515625 543.402344 L 228.152344 542.917969 C 227.863281 542.609375 227.609375 542.277344 227.359375 541.976562 L 226.667969 540.875 C 226.457031 540.507812 226.226562 540.140625 226.054688 539.738281 C 225.878906 539.332031 225.6875 538.929688 225.535156 538.527344 C 225.167969 537.699219 224.972656 536.851562 224.761719 536.023438 C 224.648438 535.582031 224.609375 535.171875 224.550781 534.753906 C 224.511719 534.332031 224.472656 533.90625 224.4375 533.503906 C 224.417969 532.710938 224.417969 531.902344 224.453125 531.132812 C 224.550781 530.398438 224.628906 529.652344 224.761719 528.960938 C 224.917969 528.300781 225.070312 527.59375 225.261719 526.996094 C 225.996094 524.46875 227.015625 522.386719 228.113281 520.546875 C 229.265625 518.582031 230.480469 516.847656 231.753906 515.230469 C 230.078125 514.671875 228.441406 514.015625 226.824219 513.324219 C 223.375 511.785156 220.0625 509.910156 216.867188 507.53125 C 215.289062 506.335938 213.710938 504.988281 212.230469 503.386719 C 210.707031 501.769531 209.222656 499.945312 207.992188 497.414062 L 207.53125 496.460938 C 207.375 496.148438 207.261719 495.746094 207.125 495.378906 C 207.011719 495.035156 206.875 494.664062 206.761719 494.261719 C 206.664062 493.859375 206.566406 493.4375 206.472656 493.011719 L 206.355469 492.414062 C 206.335938 492.183594 206.316406 491.933594 206.28125 491.703125 C 206.242188 491.242188 206.21875 490.777344 206.199219 490.3125 C 206.199219 489.816406 206.242188 489.3125 206.28125 488.792969 C 206.316406 488.296875 206.375 487.792969 206.511719 487.273438 C 206.625 486.753906 206.761719 486.25 206.933594 485.753906 C 207.105469 485.25 207.316406 484.789062 207.511719 484.308594 C 207.625 484.054688 207.742188 483.824219 207.855469 483.59375 C 207.992188 483.363281 208.128906 483.171875 208.261719 482.960938 C 208.511719 482.539062 208.800781 482.113281 209.089844 481.707031 C 209.417969 481.28125 209.839844 480.839844 210.226562 480.433594 C 210.4375 480.25 210.628906 480.054688 210.839844 479.835938 L 211.148438 479.546875 C 211.226562 479.476562 211.226562 479.492188 211.226562 479.476562 L 211.304688 479.433594 L 211.765625 479.054688 L 211.996094 478.878906 L 212.574219 478.453125 L 212.652344 478.375 C 214.753906 476.894531 216.714844 475.164062 218.390625 473.292969 C 219.371094 472.199219 220.277344 471.003906 221.027344 469.867188 C 220.777344 469.890625 220.527344 469.890625 220.277344 469.890625 C 220.277344 469.890625 206.335938 469.648438 191.816406 467.050781 C 191.761719 467.039062 191.703125 467.015625 191.605469 466.996094 C 188.664062 466.398438 185.464844 465.726562 181.960938 464.878906 C 181.882812 464.863281 181.808594 464.820312 181.746094 464.820312 C 153.140625 457.933594 154.601562 451.75 171.3125 421.304688 L 171.3125 421.289062 C 187.910156 391.113281 202.175781 346.136719 202.507812 345.097656 L 202.507812 345.078125 L 202.488281 344.753906 L 202.464844 344.605469 C 202.40625 344.386719 202.332031 344.15625 202.15625 343.984375 C 202.082031 343.890625 201.984375 343.8125 201.871094 343.734375 L 201.714844 343.617188 L 201.621094 343.582031 C 201.542969 343.539062 201.332031 343.480469 201.273438 343.480469 L 200.65625 343.328125 L 199.425781 343.019531 C 198.597656 342.808594 197.75 342.652344 196.941406 342.363281 C 192.800781 340.867188 189.316406 339.15625 186.292969 337.359375 C 173.105469 329.507812 169.945312 320.207031 169.832031 319.863281 C 170.082031 320.171875 170.332031 320.472656 170.582031 320.785156 C 171.660156 321.992188 172.988281 323.128906 174.433594 324.171875 C 174.761719 324.402344 175.085938 324.613281 175.414062 324.828125 C 175.550781 324.921875 175.664062 325.003906 175.800781 325.09375 L 175.855469 325.117188 C 176.222656 325.324219 176.570312 325.542969 176.9375 325.75 L 176.992188 325.773438 L 177.898438 326.230469 L 177.898438 326.210938 C 177.78125 326.117188 177.574219 325.921875 177.28125 325.65625 C 177.226562 325.578125 177.128906 325.496094 177.050781 325.425781 C 174.992188 323.324219 170.121094 317.472656 170.582031 309.035156 C 170.582031 309.035156 171.71875 311.90625 174.933594 315.46875 L 174.992188 315.507812 C 178.015625 318.820312 182.882812 322.703125 190.375 325.382812 L 190.414062 325.40625 C 191.992188 325.921875 193.609375 326.347656 195.1875 326.597656 C 196.515625 326.808594 197.808594 326.910156 198.984375 326.808594 C 200.15625 326.714844 201.195312 326.40625 201.753906 325.964844 C 202.0625 325.726562 202.253906 325.496094 202.40625 325.1875 C 202.425781 325.132812 202.464844 325.058594 202.507812 324.980469 C 202.542969 324.863281 202.542969 324.828125 202.5625 324.773438 L 202.71875 324.015625 C 202.886719 322.746094 202.886719 321.691406 202.640625 320.804688 C 202.195312 319.070312 200.214844 316.644531 198.539062 314.195312 C 196.804688 311.714844 195.1875 309.113281 193.703125 306.480469 C 190.78125 301.183594 188.296875 295.71875 186.0625 290.167969 C 183.828125 284.625 181.882812 278.980469 180.09375 273.34375 C 178.339844 267.664062 176.742188 261.964844 175.242188 256.222656 C 174.53125 253.351562 173.777344 250.464844 173.105469 247.636719 L 172.101562 243.339844 L 171.871094 242.269531 L 171.621094 241.152344 L 171.179688 238.957031 L 170.273438 234.542969 L 169.582031 230.09375 C 169.082031 227.128906 168.808594 224.148438 168.484375 221.179688 C 168.289062 219.699219 168.234375 218.195312 168.117188 216.714844 C 168.039062 215.214844 167.945312 213.710938 167.886719 212.214844 L 167.828125 207.71875 C 167.808594 206.996094 167.789062 206.238281 167.808594 205.46875 L 167.867188 203.234375 C 167.90625 201.738281 167.945312 200.253906 168.003906 198.75 L 168.328125 194.269531 C 168.386719 193.554688 168.425781 192.796875 168.503906 192.070312 L 168.753906 189.839844 C 168.925781 188.335938 169.058594 186.851562 169.292969 185.367188 C 170.121094 179.480469 171.351562 173.605469 172.796875 167.847656 C 174.300781 162.089844 176.125 156.429688 178.265625 150.867188 C 180.382812 145.300781 182.769531 139.886719 185.484375 134.632812 C 187.0625 131.574219 188.738281 128.570312 190.492188 125.628906 C 190.449219 125.757812 190.429688 125.929688 190.414062 126.089844 C 170.023438 184 185.773438 232.117188 243.265625 305.800781 C 275.128906 346.699219 319.898438 395.433594 378.449219 458.105469 C 387.035156 467.304688 395.949219 476.820312 405.152344 486.652344 C 417.53125 499.863281 427.695312 512.800781 435.859375 525.375 C 448.34375 440.582031 367.164062 362.527344 367.164062 362.527344 L 367.453125 363.21875 C 367.046875 362.714844 366.796875 362.390625 366.683594 362.234375 C 366.722656 362.253906 366.777344 362.296875 366.898438 362.355469 C 366.972656 362.390625 367.046875 362.449219 367.164062 362.527344 C 376.042969 367.589844 499.957031 442.136719 473.3125 622.183594 C 472.445312 628.117188 471.382812 634.160156 470.175781 640.324219 C 470.175781 640.324219 510.898438 585.160156 498.472656 510.128906 C 495.839844 494.335938 490.871094 477.683594 482.707031 460.472656 C 483.207031 461.070312 490.066406 469.5 497.839844 484.6875 C 516.015625 520.039062 539.21875 591.898438 498.785156 686.027344 C 479.722656 720.457031 447.226562 752.78125 394.3125 777.464844 C 384.765625 781.9375 374.558594 786.132812 363.640625 790.0625 C 347.96875 795.699219 330.851562 800.746094 312.175781 805.117188 C 383.109375 798.722656 419.957031 784.328125 435.457031 776.425781 C 519.867188 769.898438 596.726562 736.394531 657.417969 684.542969 C 662.328125 699.8125 668.722656 725.773438 671.414062 763.140625 C 675.207031 728.851562 675.539062 697.929688 673.378906 670.144531 C 672.550781 659.480469 671.355469 649.269531 669.835938 639.511719 C 649.003906 505.082031 568.328125 455.578125 566.890625 454.710938 C 644.003906 581.402344 583.386719 723.1875 583.386719 723.1875 C 619.199219 546.957031 509.027344 416.148438 327.269531 322.496094 C 163.515625 238.144531 195.015625 137.367188 202.871094 118.191406 C 216.117188 162.03125 277.882812 228.964844 491.136719 305.976562 C 670.988281 370.9375 720.171875 481.84375 722.148438 580.4375 C 722.417969 592.300781 721.976562 604.007812 720.976562 615.410156 C 715.101562 683.890625 689.875 742.328125 676.769531 768.75 C 727.886719 698.15625 743.15625 610.9375 747.523438 572.949219 C 777.0625 518.15625 793.8125 455.445312 793.8125 388.8125 C 793.8125 174.066406 619.734375 -0.0117188 405 -0.0117188 " fill-opacity="1" fill-rule="nonzero"/></g></svg>